G04 MADE WITH FRITZING*
G04 WWW.FRITZING.ORG*
G04 DOUBLE SIDED*
G04 HOLES PLATED*
G04 CONTOUR ON CENTER OF CONTOUR VECTOR*
%ASAXBY*%
%FSLAX23Y23*%
%MOIN*%
%OFA0B0*%
%SFA1.0B1.0*%
%ADD10C,0.075000*%
%ADD11C,0.080000*%
%ADD12C,0.065000*%
%ADD13C,0.140000*%
%ADD14R,0.080000X0.080000*%
%ADD15R,0.075000X0.075000*%
%ADD16R,0.059055X0.055118*%
%ADD17R,0.055118X0.059055*%
%ADD18C,0.032000*%
%ADD19C,0.024000*%
%LNCOPPER1*%
G90*
G70*
G54D10*
X949Y1993D03*
X1049Y1993D03*
X1149Y1993D03*
X1249Y1993D03*
X1349Y1993D03*
X1449Y1993D03*
X1549Y1993D03*
X1649Y1993D03*
X1819Y1993D03*
X1919Y1993D03*
X2019Y1993D03*
X2119Y1993D03*
X2219Y1993D03*
X2319Y1993D03*
X2419Y1993D03*
X2519Y1993D03*
X1319Y93D03*
X1419Y93D03*
X1519Y93D03*
X1619Y93D03*
X1719Y93D03*
X1819Y93D03*
X2019Y93D03*
X2119Y93D03*
X2219Y93D03*
X2319Y93D03*
X2419Y93D03*
X2519Y93D03*
G54D11*
X2472Y1337D03*
X2472Y1475D03*
X2472Y1612D03*
X2472Y1750D03*
G54D12*
X430Y1199D03*
X430Y1278D03*
X430Y1357D03*
X430Y1436D03*
G54D13*
X545Y1910D03*
X305Y1910D03*
X425Y1720D03*
G54D10*
X841Y277D03*
X1097Y277D03*
X841Y100D03*
X1097Y100D03*
X2040Y1663D03*
X2040Y1363D03*
X1940Y1663D03*
X1940Y1363D03*
X1840Y1663D03*
X1840Y1363D03*
X1740Y1663D03*
X1740Y1363D03*
X1640Y1663D03*
X1640Y1363D03*
X1540Y1663D03*
X1540Y1363D03*
X1440Y1663D03*
X1440Y1363D03*
X1340Y1663D03*
X1340Y1363D03*
X601Y806D03*
X601Y551D03*
X423Y806D03*
X423Y551D03*
X2332Y1119D03*
X2332Y863D03*
X2155Y1119D03*
X2155Y863D03*
X1954Y1195D03*
X1954Y795D03*
X2317Y273D03*
X2317Y673D03*
X1862Y264D03*
X1862Y664D03*
X776Y886D03*
X776Y486D03*
G54D11*
X169Y1003D03*
X169Y865D03*
X169Y728D03*
X169Y590D03*
X2569Y737D03*
X2569Y874D03*
G54D10*
X2096Y612D03*
X2096Y312D03*
G54D11*
X2570Y405D03*
X2570Y543D03*
G54D10*
X835Y1290D03*
X735Y1290D03*
X2226Y1472D03*
X1940Y1472D03*
G54D14*
X2472Y1337D03*
G54D15*
X2040Y1663D03*
X1954Y1195D03*
X2317Y273D03*
X1862Y264D03*
X776Y886D03*
G54D14*
X169Y1003D03*
X2569Y737D03*
G54D15*
X2096Y612D03*
G54D14*
X2570Y405D03*
G54D16*
X755Y1989D03*
X755Y1909D03*
G54D17*
X761Y1785D03*
X842Y1785D03*
X931Y1171D03*
X850Y1171D03*
X932Y1429D03*
X851Y1429D03*
X933Y1541D03*
X852Y1541D03*
G54D16*
X654Y309D03*
X654Y389D03*
X656Y108D03*
X656Y189D03*
G54D18*
X444Y1538D02*
X205Y1537D01*
D02*
X169Y1497D02*
X169Y1040D01*
D02*
X543Y1622D02*
X444Y1538D01*
D02*
X205Y1537D02*
X169Y1497D01*
D02*
X544Y1844D02*
X543Y1622D01*
G54D19*
D02*
X2156Y1664D02*
X2069Y1663D01*
D02*
X2219Y1722D02*
X2156Y1664D01*
D02*
X2219Y1964D02*
X2219Y1722D01*
D02*
X1941Y1808D02*
X2020Y1878D01*
D02*
X1940Y1692D02*
X1941Y1808D01*
D02*
X2020Y1878D02*
X2019Y1964D01*
D02*
X1839Y1822D02*
X1840Y1692D01*
D02*
X1919Y1964D02*
X1916Y1892D01*
D02*
X1916Y1892D02*
X1839Y1822D01*
D02*
X2276Y713D02*
X2296Y693D01*
D02*
X1882Y685D02*
X1908Y712D01*
D02*
X1908Y712D02*
X2276Y713D01*
G54D18*
D02*
X2670Y1471D02*
X2551Y1573D01*
D02*
X2551Y1573D02*
X2551Y1700D01*
D02*
X2551Y1700D02*
X2514Y1748D01*
D02*
X2514Y1748D02*
X2508Y1748D01*
D02*
X2670Y227D02*
X2670Y1471D01*
D02*
X1819Y159D02*
X1844Y181D01*
D02*
X1844Y181D02*
X2619Y179D01*
D02*
X2619Y179D02*
X2670Y227D01*
D02*
X1819Y127D02*
X1819Y159D01*
G54D19*
D02*
X1520Y310D02*
X1593Y377D01*
D02*
X1593Y377D02*
X1900Y377D01*
D02*
X1900Y377D02*
X1949Y426D01*
D02*
X1949Y426D02*
X1949Y568D01*
D02*
X1949Y568D02*
X1996Y615D01*
D02*
X1996Y615D02*
X2068Y613D01*
D02*
X1519Y121D02*
X1520Y310D01*
D02*
X1296Y98D02*
X1126Y100D01*
D02*
X1292Y100D02*
X1296Y98D01*
G54D18*
D02*
X775Y418D02*
X776Y452D01*
D02*
X809Y377D02*
X775Y418D01*
D02*
X1453Y377D02*
X809Y377D01*
D02*
X1520Y312D02*
X1453Y377D01*
D02*
X1519Y127D02*
X1520Y312D01*
G54D19*
D02*
X652Y444D02*
X653Y411D01*
D02*
X696Y483D02*
X652Y444D01*
D02*
X747Y485D02*
X696Y483D01*
D02*
X654Y287D02*
X655Y211D01*
D02*
X209Y552D02*
X191Y568D01*
D02*
X395Y551D02*
X209Y552D01*
D02*
X424Y856D02*
X424Y835D01*
D02*
X459Y890D02*
X424Y856D01*
D02*
X747Y887D02*
X459Y890D01*
D02*
X851Y1172D02*
X850Y1171D01*
D02*
X454Y1170D02*
X851Y1172D01*
D02*
X445Y1181D02*
X454Y1170D01*
D02*
X462Y1288D02*
X706Y1290D01*
D02*
X452Y1285D02*
X462Y1288D01*
D02*
X615Y1427D02*
X829Y1429D01*
D02*
X453Y1357D02*
X530Y1358D01*
D02*
X530Y1358D02*
X615Y1427D01*
D02*
X612Y1539D02*
X830Y1540D01*
D02*
X453Y1436D02*
X489Y1436D01*
D02*
X489Y1436D02*
X612Y1539D01*
D02*
X754Y1824D02*
X757Y1809D01*
D02*
X755Y1887D02*
X754Y1824D01*
D02*
X1041Y1538D02*
X955Y1540D01*
D02*
X1087Y1585D02*
X1041Y1538D01*
D02*
X1085Y1818D02*
X1087Y1585D01*
D02*
X1163Y1900D02*
X1085Y1818D01*
D02*
X1280Y1900D02*
X1163Y1900D01*
D02*
X1332Y1970D02*
X1280Y1900D01*
D02*
X1013Y1431D02*
X954Y1430D01*
D02*
X1148Y1557D02*
X1013Y1431D01*
D02*
X1150Y1785D02*
X1148Y1557D01*
D02*
X1204Y1838D02*
X1150Y1785D01*
D02*
X1324Y1837D02*
X1204Y1838D01*
D02*
X1432Y1970D02*
X1324Y1837D01*
D02*
X1028Y1175D02*
X953Y1172D01*
D02*
X1080Y1227D02*
X1028Y1175D01*
D02*
X1081Y1409D02*
X1080Y1227D01*
D02*
X1207Y1533D02*
X1081Y1409D01*
D02*
X1207Y1751D02*
X1207Y1533D01*
D02*
X1375Y1776D02*
X1232Y1776D01*
D02*
X1232Y1776D02*
X1207Y1751D01*
D02*
X1532Y1970D02*
X1375Y1776D01*
D02*
X976Y1787D02*
X864Y1786D01*
D02*
X1146Y1963D02*
X976Y1787D01*
D02*
X1146Y1964D02*
X1146Y1963D01*
D02*
X704Y2038D02*
X361Y2037D01*
D02*
X361Y2037D02*
X306Y1983D01*
D02*
X306Y1983D02*
X305Y1971D01*
D02*
X732Y2011D02*
X704Y2038D01*
D02*
X584Y108D02*
X632Y108D01*
D02*
X544Y382D02*
X547Y152D01*
D02*
X547Y152D02*
X584Y108D01*
D02*
X65Y470D02*
X108Y419D01*
D02*
X498Y423D02*
X544Y382D01*
D02*
X108Y419D02*
X498Y423D01*
D02*
X65Y686D02*
X65Y470D01*
D02*
X104Y725D02*
X65Y686D01*
D02*
X138Y726D02*
X104Y725D01*
D02*
X1047Y1966D02*
X1047Y1964D01*
D02*
X951Y1864D02*
X1047Y1966D01*
D02*
X869Y1867D02*
X951Y1864D01*
D02*
X838Y1905D02*
X869Y1867D01*
D02*
X838Y1953D02*
X838Y1905D01*
D02*
X801Y1990D02*
X838Y1953D01*
D02*
X779Y1990D02*
X801Y1990D01*
D02*
X2317Y1251D02*
X2319Y1964D01*
D02*
X2268Y1200D02*
X2317Y1251D01*
D02*
X1982Y1195D02*
X2268Y1200D01*
G54D18*
D02*
X1975Y1472D02*
X2192Y1472D01*
G04 End of Copper1*
M02*