G04 MADE WITH FRITZING*
G04 WWW.FRITZING.ORG*
G04 DOUBLE SIDED*
G04 HOLES PLATED*
G04 CONTOUR ON CENTER OF CONTOUR VECTOR*
%ASAXBY*%
%FSLAX23Y23*%
%MOIN*%
%OFA0B0*%
%SFA1.0B1.0*%
%ADD10C,0.085000*%
%ADD11C,0.090000*%
%ADD12C,0.075000*%
%ADD13C,0.150000*%
%ADD14R,0.090000X0.090000*%
%ADD15R,0.085000X0.085000*%
%ADD16R,0.069055X0.065118*%
%ADD17R,0.065118X0.069055*%
%LNMASK1*%
G90*
G70*
G54D10*
X949Y1993D03*
X1049Y1993D03*
X1149Y1993D03*
X1249Y1993D03*
X1349Y1993D03*
X1449Y1993D03*
X1549Y1993D03*
X1649Y1993D03*
X1819Y1993D03*
X1919Y1993D03*
X2019Y1993D03*
X2119Y1993D03*
X2219Y1993D03*
X2319Y1993D03*
X2419Y1993D03*
X2519Y1993D03*
X1319Y93D03*
X1419Y93D03*
X1519Y93D03*
X1619Y93D03*
X1719Y93D03*
X1819Y93D03*
X2019Y93D03*
X2119Y93D03*
X2219Y93D03*
X2319Y93D03*
X2419Y93D03*
X2519Y93D03*
G54D11*
X2472Y1337D03*
X2472Y1475D03*
X2472Y1612D03*
X2472Y1750D03*
G54D12*
X430Y1199D03*
X430Y1278D03*
X430Y1357D03*
X430Y1436D03*
G54D13*
X545Y1910D03*
X305Y1910D03*
X425Y1720D03*
G54D10*
X841Y277D03*
X1097Y277D03*
X841Y100D03*
X1097Y100D03*
X2040Y1663D03*
X2040Y1363D03*
X1940Y1663D03*
X1940Y1363D03*
X1840Y1663D03*
X1840Y1363D03*
X1740Y1663D03*
X1740Y1363D03*
X1640Y1663D03*
X1640Y1363D03*
X1540Y1663D03*
X1540Y1363D03*
X1440Y1663D03*
X1440Y1363D03*
X1340Y1663D03*
X1340Y1363D03*
X601Y806D03*
X601Y551D03*
X423Y806D03*
X423Y551D03*
X2332Y1119D03*
X2332Y863D03*
X2155Y1119D03*
X2155Y863D03*
X1954Y1195D03*
X1954Y795D03*
X2317Y273D03*
X2317Y673D03*
X1862Y264D03*
X1862Y664D03*
X776Y886D03*
X776Y486D03*
G54D11*
X169Y1003D03*
X169Y865D03*
X169Y728D03*
X169Y590D03*
X2569Y737D03*
X2569Y874D03*
G54D10*
X2096Y612D03*
X2096Y312D03*
G54D11*
X2570Y405D03*
X2570Y543D03*
G54D10*
X835Y1290D03*
X735Y1290D03*
X2226Y1472D03*
X1940Y1472D03*
G54D14*
X2472Y1337D03*
G54D15*
X2040Y1663D03*
X1954Y1195D03*
X2317Y273D03*
X1862Y264D03*
X776Y886D03*
G54D14*
X169Y1003D03*
X2569Y737D03*
G54D15*
X2096Y612D03*
G54D14*
X2570Y405D03*
G54D16*
X755Y1989D03*
X755Y1909D03*
G54D17*
X761Y1785D03*
X842Y1785D03*
X931Y1171D03*
X850Y1171D03*
X932Y1429D03*
X851Y1429D03*
X933Y1541D03*
X852Y1541D03*
G54D16*
X654Y309D03*
X654Y389D03*
X656Y108D03*
X656Y189D03*
G04 End of Mask1*
M02*