M48
INCH
T10C0.035000
T11C0.040000
T12C0.025000
T13C0.100000
%
T10
X019404Y014722
X022263Y014716
X007349Y012898
X008349Y012898
X020963Y003123
X020963Y006123
X007760Y004864
X007760Y008864
X018619Y006642
X018619Y002642
X023167Y006731
X023167Y002731
X019538Y007946
X019538Y011946
X021552Y008631
X021552Y011190
X023323Y008631
X023323Y011190
X004233Y005505
X004233Y008064
X006005Y005505
X006005Y008064
X013401Y013631
X013401Y016631
X014401Y013631
X014401Y016631
X015401Y013631
X015401Y016631
X016401Y013631
X016401Y016631
X017401Y013631
X017401Y016631
X018401Y013631
X018401Y016631
X019401Y013631
X019401Y016631
X020401Y013631
X020401Y016631
X010969Y001002
X008410Y001002
X010969Y002774
X008410Y002774
X025194Y000927
X024194Y000927
X023194Y000927
X022194Y000927
X021194Y000927
X020194Y000927
X018194Y000927
X017194Y000927
X016194Y000927
X015194Y000927
X014194Y000927
X013194Y000927
X025194Y019927
X024194Y019927
X023194Y019927
X022194Y019927
X021194Y019927
X020194Y019927
X019194Y019927
X018194Y019927
X016494Y019927
X015494Y019927
X014494Y019927
X013494Y019927
X012494Y019927
X011494Y019927
X010494Y019927
X009494Y019927
T11
X025702Y005426
X025702Y004049
X025692Y008743
X025692Y007365
X001686Y005899
X001686Y007276
X001686Y008654
X001686Y010032
X024717Y017500
X024717Y016123
X024717Y014745
X024717Y013367
T12
X004296Y014356
X004296Y013568
X004296Y012782
X004296Y011994
T13
X004250Y017202
X003050Y019102
X005450Y019102
T00
M30
